<svg class="_Dv0M7" width="24" height="24" viewBox="0 0 24 24" fill="none" xmlns="http://www.w3.org/2000/svg"><g fill="currentColor"><path d="m14.52 17.09-2.247-1.284-2.248 1.285.597-2.422-1.986-1.63 2.615-.21 1.022-2.284 1.021 2.284 2.615.21-1.985 1.63.596 2.422Z"></path><path fill-rule="evenodd" clip-rule="evenodd" d="M17.364 5.455h.727c.8 0 1.454.654 1.454 1.454v11.637c0 .8-.654 1.454-1.454 1.454H6.455C5.655 20 5 19.346 5 18.546V6.909c0-.8.655-1.454 1.455-1.454h.727v-.728a.727.727 0 0 1 1.454 0v.728h7.273v-.728a.727.727 0 0 1 1.455 0v.728ZM6.454 9.09v9.455h11.637V9.09H6.455Z"></path></g></svg>