<svg class="_Dv0M7" width="24" height="24" viewBox="0 0 24 24" fill="none" xmlns="http://www.w3.org/2000/svg"><path d="M16 20H8a.623.623 0 0 1-.625-.62c0-.342.28-.62.625-.62h8c.345 0 .625.277.625.62 0 .342-.28.62-.625.62Zm4-4.093V5.587C20 4.715 19.28 4 18.4 4H5.6C4.72 4 4 4.714 4 5.588v10.319c0 .873.72 1.588 1.6 1.588h12.8c.88 0 1.6-.715 1.6-1.588ZM18.4 5.24c.195 0 .35.154.35.348v10.319a.347.347 0 0 1-.35.347H5.6a.347.347 0 0 1-.35-.347V5.587c0-.193.155-.347.35-.347h12.8Zm-7.915 8.137 5.16-4.962a.617.617 0 0 0 .015-.878.628.628 0 0 0-.885-.015l-4.725 4.545L8.935 11a.628.628 0 0 0-.885.015.616.616 0 0 0 .015.878l1.55 1.489a.637.637 0 0 0 .87 0v-.005Z" fill="currentColor"></path></svg>