<svg width="403" height="318" viewBox="0 0 403 318" fill="none" xmlns="http://www.w3.org/2000/svg">
<g clip-path="url(#clip0_325_6308)">
<path d="M148.897 232.383L402.979 232.383L402.979 235.694C402.979 240.89 398.766 245.103 393.57 245.103L158.306 245.103C153.11 245.103 148.897 240.89 148.897 235.694L148.897 232.383Z" fill="#16191C"/>
<path d="M250.809 234.996V234.996C250.809 237.822 253.1 240.112 255.925 240.112L296.001 240.112C298.827 240.112 301.118 237.822 301.118 234.996V234.996" stroke="#F9F9F9" stroke-width="1.48576" stroke-linecap="round" stroke-linejoin="round"/>
<path d="M171.544 107.461C171.544 102.264 175.757 98.0515 180.953 98.0515L370.767 98.0515C375.964 98.0515 380.177 102.264 380.177 107.461L380.177 232.383L171.544 232.383L171.544 107.461Z" fill="#F9F9F9"/>
<mask id="mask0_325_6308" style="mask-type:alpha" maskUnits="userSpaceOnUse" x="176" y="102" width="200" height="125">
<path d="M176.559 107.603C176.559 105.005 178.665 102.899 181.263 102.899L370.404 102.899C373.002 102.899 375.109 105.005 375.109 107.603L375.109 226.993L176.559 226.993L176.559 107.603Z" fill="#1EBFBF"/>
</mask>
<g mask="url(#mask0_325_6308)">
<rect x="176.559" y="102.899" width="198.55" height="124.094" fill="#1EBFBF"/>
<path d="M282.793 145.855C283.738 145.88 284.63 145.899 285.35 146.029C286.857 146.419 288.277 147.256 289.015 148.93C289.015 148.93 289.18 149.228 289.301 150.086C289.422 150.944 289.605 153.325 289.605 153.325C289.858 157.279 289.885 161.392 289.926 165.267C289.861 166.784 289.445 168.209 288.816 169.512C287.276 172.697 284.455 175.151 282.334 176.428C277.084 179.148 272.007 181.57 267.709 183.521C263.159 185.256 261.094 183.515 260.409 181.448C260.271 180.885 260.223 180.306 260.244 179.771C260.244 179.771 260.286 178.488 260.601 176.382C260.915 174.276 263.235 159.111 265.726 151.337C266.355 149.541 268.699 146.168 274.275 145.855L282.793 145.855Z" fill="#16191C"/>
<path d="M281.863 152.951C282.268 152.951 282.596 153.286 282.596 153.698L282.596 156.313C282.596 156.725 282.268 157.06 281.863 157.06L281.496 157.06C279.067 157.06 277.098 159.066 277.098 161.542L277.098 165.556C277.098 170.301 273.324 174.147 268.669 174.147L268.302 174.147C267.898 174.147 267.569 173.812 267.569 173.4L267.569 170.785C267.569 170.373 267.898 170.038 268.302 170.038L268.669 170.038C271.098 170.038 273.067 168.032 273.067 165.556L273.067 161.542C273.067 156.797 276.841 152.951 281.496 152.951L281.863 152.951Z" fill="#1EBFBF"/>
<circle opacity="0.3" cx="275.772" cy="164.897" r="82.6356" stroke="#16191C" stroke-width="0.792406" stroke-linecap="round" stroke-linejoin="round"/>
<circle opacity="0.15" cx="275.772" cy="164.896" r="105.383" stroke="#16191C" stroke-width="0.792406" stroke-linecap="round" stroke-linejoin="round"/>
<circle opacity="0.6" cx="275.773" cy="164.894" r="59.8883" stroke="#16191C" stroke-width="0.792406" stroke-linecap="round" stroke-linejoin="round"/>
<circle cx="275.494" cy="164.615" r="36.8632" stroke="#16191C" stroke-width="0.792406" stroke-linecap="round" stroke-linejoin="round"/>
</g>
<path d="M206.336 72.5257L225.16 19.4235M270.967 3.70251L213.324 79.1634M222.407 84.0544L257.692 58.9008M13.2996 235.898C13.7821 246.273 21.5513 269.05 48.7672 277.157M8.03936 249.427C8.84572 254.726 13.8451 267.328 27.3919 275.346" stroke="#16191C" stroke-width="1.48576" stroke-linecap="round" stroke-linejoin="round"/>
<path d="M304.318 315.718C316.305 305.342 319.466 278.794 297.146 278.794C278.797 278.794 266.959 306.454 278.797 306.454C297.146 306.454 317.981 249.831 261.644 265.676" stroke="#16191C" stroke-width="1.48576" stroke-linecap="round" stroke-linejoin="round"/>
<path d="M42.7597 189.208C33.2625 182.559 20.933 185.127 14.2637 194.264C7.59444 203.4 16.3787 216.711 22.8476 221.377C29.3166 226.043 37.6956 225.783 41.6148 219C45.534 212.217 41.2848 196.887 41.2848 196.887L42.7626 189.21L42.7597 189.208Z" fill="#F9F9F9"/>
<path d="M57.6925 108.182C57.6925 108.182 38.7116 97.0035 33.1999 84.1389C28.7481 73.7537 36.6133 62.3033 47.5676 63.7505C54.7039 64.6943 63.7354 71.422 63.7354 71.422C63.7354 71.422 61.4454 84.0441 61.0292 85.9132C60.8052 86.9182 61.7104 86.9445 61.7104 86.9445L57.6951 108.179L57.6925 108.182Z" fill="#F9F9F9"/>
<path d="M28.7137 200.176C35.2306 208.431 29.5387 219.949 26.2267 220.161" stroke="#16191C" stroke-width="1.48576" stroke-miterlimit="10" stroke-linecap="round" stroke-linejoin="round"/>
<path d="M53.3135 243.551C53.3135 243.551 53.3149 243.553 53.3178 243.556C54.2116 243.722 118.028 255.566 131.713 258.35C145.495 261.153 152.442 254.486 154.668 246.043C156.895 237.6 164.07 194.954 164.07 194.954C164.07 194.954 166.307 193.888 166.96 189.696C167.398 186.884 167.351 174.226 168.192 162.184C169.033 150.142 167.527 133.872 176.522 123.152C185.517 112.432 197.489 117.646 198.783 125.183C200.622 135.899 203.098 149.339 204.654 169.988C206.327 192.21 208.265 207.575 205.602 223.799C205.602 223.799 230.159 226.303 239.489 225.43C250.57 246.042 261.488 293.367 216.511 317.771C184.789 319.609 125.102 313.391 93.7453 287.223C78.4952 272.106 53.6898 243.978 53.3178 243.556C53.3114 243.555 53.3083 243.554 53.3083 243.554L53.3135 243.551Z" fill="#F9F9F9"/>
<path d="M216.512 317.77C261.489 293.366 250.571 246.041 239.49 225.429C230.16 226.302 205.603 223.798 205.603 223.798C185.503 270.385 251.029 263.807 216.512 317.77Z" fill="#16191C"/>
<path d="M242.756 230.248C243.903 233.185 245.429 237.313 246.525 242.167" stroke="#F9F9F9" stroke-width="1.48576" stroke-linecap="round" stroke-linejoin="round"/>
<rect x="78.5054" y="-1.90479" width="125.679" height="261.935" rx="15.2592" transform="rotate(11.5819 78.5054 -1.90479)" fill="#16191C"/>
<mask id="mask1_325_6308" style="mask-type:alpha" maskUnits="userSpaceOnUse" x="33" y="5" width="162" height="268">
<rect x="82.1177" y="3.70251" width="116.658" height="252.603" rx="11.7378" transform="rotate(11.5819 82.1177 3.70251)" fill="#4580FF"/>
</mask>
<g mask="url(#mask1_325_6308)">
<rect x="82.1177" y="3.70251" width="116.658" height="252.603" rx="11.7378" transform="rotate(11.5819 82.1177 3.70251)" fill="#1EBFBF"/>
<circle cx="4.49217" cy="4.49217" r="4.49217" transform="matrix(-0.871556 -0.490295 -0.490295 0.871556 99.3608 21.3683)" fill="#16191C"/>
<path d="M154.612 175.416C174.54 152.945 172.478 118.574 150.007 98.6459C127.536 78.7178 93.1652 80.7791 73.2371 103.25C53.309 125.721 55.3703 160.092 77.8413 180.02C100.312 199.948 134.683 197.887 154.612 175.416Z" stroke="#16191C" stroke-width="0.792406" stroke-linecap="round" stroke-linejoin="round"/>
<path opacity="0.6" d="M172.69 191.451C201.473 158.995 198.496 109.35 166.04 80.5666C133.584 51.7832 83.9392 54.7605 55.1558 87.2167C26.3724 119.673 29.3497 169.317 61.8059 198.101C94.262 226.884 143.907 223.907 172.69 191.451Z" stroke="#16191C" stroke-width="0.792406" stroke-linecap="round" stroke-linejoin="round"/>
<path opacity="0.3" d="M191.258 207.917C229.135 165.206 225.217 99.8769 182.507 61.9996C139.797 24.1223 74.4673 28.0403 36.59 70.7507C-1.28731 113.461 2.63069 178.79 45.3411 216.668C88.0515 254.545 153.381 250.627 191.258 207.917Z" stroke="#16191C" stroke-width="0.792406" stroke-linecap="round" stroke-linejoin="round"/>
<path d="M129.101 116.159C130.327 116.444 131.487 116.707 132.392 117.069C134.254 117.982 135.884 119.454 136.399 121.837C136.399 121.837 136.536 122.27 136.464 123.422C136.392 124.575 135.994 127.732 135.994 127.732C135.266 132.961 134.202 138.337 133.218 143.407C132.727 145.369 131.803 147.119 130.633 148.651C127.771 152.397 123.432 154.846 120.321 155.945C112.74 158.091 105.464 159.894 99.3319 161.291C92.9286 162.339 90.6988 159.513 90.3578 156.631C90.3276 155.859 90.4199 155.09 90.5907 154.398C90.5907 154.398 90.9885 152.735 91.9629 150.07C92.9373 147.405 100.023 128.229 105.355 118.748C106.656 116.571 110.619 112.796 117.981 113.879L129.101 116.159Z" fill="#16191C"/>
<path d="M125.988 125.173C126.516 125.281 126.855 125.805 126.745 126.344L126.045 129.757C125.935 130.295 125.417 130.644 124.888 130.536L124.41 130.438C121.239 129.788 118.132 131.88 117.47 135.111L116.395 140.352C115.126 146.545 109.17 150.556 103.093 149.31L102.615 149.212C102.086 149.104 101.747 148.58 101.858 148.041L102.557 144.628C102.668 144.09 103.186 143.741 103.714 143.849L104.192 143.947C107.363 144.597 110.47 142.505 111.133 139.274L112.207 134.033C113.476 127.84 119.432 123.829 125.509 125.075L125.988 125.173Z" fill="#1EBFBF"/>
</g>
<path d="M166.968 189.691C165.247 198.793 162.333 207.278 162.333 207.278" stroke="#16191C" stroke-width="1.48576" stroke-miterlimit="10" stroke-linecap="round" stroke-linejoin="round"/>
<path d="M31.7338 145.915C31.7338 145.915 21.0732 148.621 18.6277 158.437C16.0613 168.744 24.7285 180.484 30.609 183.486C36.4895 186.489 41.7515 182.312 43.3043 177.754C44.857 173.197 45.5545 167.312 45.5545 167.312C45.5545 167.312 45.6394 161.466 46.134 159.589C46.6287 157.712 48.0388 148.557 48.0388 148.557C48.0388 148.557 52.0686 144.303 53.349 137.918C54.6294 131.533 52.2474 125.541 52.2474 125.541L54.8183 112.928C54.8183 112.928 45.9562 111.344 38.7685 114.265C31.5807 117.186 26.7623 125.946 27.9883 133.092C29.2142 140.239 31.7311 145.915 31.7311 145.915L31.7338 145.915Z" fill="#F9F9F9"/>
<path d="M31.7349 145.915C36.7072 156.354 44.3067 152.639 44.3067 152.639" stroke="#16191C" stroke-width="1.48576" stroke-miterlimit="10" stroke-linecap="round" stroke-linejoin="round"/>
<path d="M204.656 169.988C206.329 192.211 207.737 206.988 205.074 223.212L165.82 199.79C166.258 196.978 167.353 174.227 168.194 162.185C169.035 150.143 167.529 133.872 176.524 123.152C185.519 112.432 197.491 117.646 198.785 125.183C200.624 135.899 203.1 149.34 204.656 169.988Z" fill="#F9F9F9"/>
<path d="M190.397 124.795C189.146 127.825 188.551 132.876 188.68 140.11C188.952 155.128 196.72 157.637 199.886 156.683" stroke="#16191C" stroke-width="1.48576" stroke-miterlimit="10" stroke-linecap="round" stroke-linejoin="round"/>
<path d="M23.273 110.251C23.9389 110.196 23.9384 109.222 23.273 109.162C17.7224 108.228 13.3649 103.87 12.4312 98.3198C12.368 97.625 11.3531 97.625 11.2899 98.3198C10.408 103.87 6.05057 108.228 0.499981 109.162C-0.165489 109.222 -0.165962 110.196 0.499981 110.251C6.05057 111.185 10.408 115.542 11.3418 121.093C11.4023 121.758 12.3761 121.759 12.4312 121.093C13.3649 115.542 17.7224 111.185 23.273 110.251Z" fill="#16191C"/>
<path d="M85.1995 41.3216C86.2728 41.2343 86.272 39.6643 85.1995 39.5684C76.1202 38.0657 68.9926 31.0529 67.4652 22.1201C67.3603 20.9853 65.7033 20.9853 65.5984 22.1201C64.1559 31.0529 57.0282 38.0657 47.9489 39.5684C46.8764 39.6643 46.8757 41.2343 47.9489 41.3216C57.0282 42.8243 64.1559 49.837 65.6833 58.7699C65.7837 59.8568 67.3738 59.8576 67.4652 58.7699C68.9926 49.837 76.1202 42.8243 85.1995 41.3216Z" fill="#F9F9F9"/>
<path d="M384.259 104.06C385.552 103.955 385.551 102.063 384.259 101.948C373.253 100.139 364.613 91.6926 362.761 80.934C362.633 79.5592 360.626 79.5592 360.498 80.934C358.75 91.6926 350.11 100.139 339.104 101.948C337.811 102.063 337.811 103.955 339.104 104.06C350.11 105.87 358.75 114.316 360.601 125.074C360.724 126.391 362.65 126.392 362.761 125.074C364.613 114.316 373.253 105.87 384.259 104.06Z" fill="#16191C"/>
<path d="M344.06 68.5481C344.744 68.4928 344.743 67.4925 344.06 67.4317C338.248 66.4748 333.685 62.0091 332.707 56.3206C332.64 55.5945 331.58 55.5945 331.512 56.3206C330.589 62.0091 326.026 66.4748 320.214 67.4317C319.531 67.4925 319.53 68.4928 320.214 68.5481C326.026 69.505 330.589 73.9707 331.567 79.6591C331.631 80.3546 332.648 80.3551 332.707 79.6591C333.685 73.9707 338.248 69.505 344.06 68.5481Z" fill="#F9F9F9"/>
</g>
<defs>
<clipPath id="clip0_325_6308">
<rect width="402.925" height="317.038" fill="white" transform="translate(0 0.961548)"/>
</clipPath>
</defs>
</svg>
