<svg class="_Dv0M7" width="24" height="24" viewBox="0 0 24 24" fill="none" xmlns="http://www.w3.org/2000/svg"><path d="m4 14.098 3.373 2.134s2.719-1.121 3.513-1.117a.763.763 0 0 1 .255.015l3.041.68c.395.085.66.465.587.855a.738.738 0 0 1-.895.58l-1.13-.253-1.247-.28a.43.43 0 0 0-.515.319.424.424 0 0 0 .323.508l3.623.794c.034.01.063.01.096.01 0 0 .068 0 .126-.015l3.406-1.274a.628.628 0 0 1 .809.385.623.623 0 0 1-.39.775l-3.498 1.654a1.099 1.099 0 0 1-.39.08c-.88.015-4.336.067-4.557.048-.255-.024-2.93-.68-2.93-.68L4 17.952m10.586-3.245c-2.983 0-5.413-2.4-5.413-5.347 0-2.946 2.43-5.36 5.413-5.36C17.57 4 20 6.4 20 9.346c0 2.947-2.43 5.346-5.414 5.346v.015Zm0-9.505c-2.319 0-4.21 1.868-4.21 4.158 0 2.291 1.891 4.159 4.21 4.159 2.32 0 4.211-1.868 4.211-4.159 0-2.29-1.891-4.158-4.21-4.158Zm.602 6.867v-.366c.327-.076.611-.223.832-.432.304-.29.467-.68.467-1.126 0-1.093-1.025-1.369-1.636-1.535-.678-.186-.746-.257-.746-.39 0-.119.024-.204.072-.247.063-.062.198-.095.361-.095h.034c.327.01.703.152.89.337a.607.607 0 0 0 .852 0 .589.589 0 0 0 0-.84c-.28-.277-.688-.49-1.121-.6v-.261a.598.598 0 0 0-.602-.594.598.598 0 0 0-.601.594v.252c-.25.071-.472.19-.65.36-.197.191-.433.538-.433 1.099 0 1.093 1.025 1.368 1.636 1.535.679.185.746.256.746.39 0 .16-.058.232-.096.27-.106.1-.303.157-.53.157h-.048c-.346-.014-.683-.157-.837-.356a.605.605 0 0 0-.842-.12.592.592 0 0 0-.12.832c.27.352.693.618 1.179.747v.394c0 .328.27.594.601.594a.598.598 0 0 0 .602-.594l-.01-.005Z" fill="currentColor"></path></svg>