<svg width="144" height="160" viewBox="0 0 144 160" fill="none" xmlns="http://www.w3.org/2000/svg">
<circle cx="71.6676" cy="88.3326" r="71.6676" fill="#1EBFBF"/>
<circle cx="71.8881" cy="98.7951" r="55.6411" fill="#F9F9F9"/>
<mask id="mask0_325_6406" style="mask-type:alpha" maskUnits="userSpaceOnUse" x="16" y="43" width="112" height="112">
<circle cx="71.8881" cy="98.7951" r="55.6411" fill="white"/>
</mask>
<g mask="url(#mask0_325_6406)">
<path d="M256.732 134.232C256.488 133.266 255.452 134.15 254.934 133.984C253.959 133.625 254.264 132.825 253.533 132.356C253.35 132.245 251.979 131.5 252.497 132.549C252.802 133.156 253.289 133.846 253.441 134.453C253.563 135.005 253.106 135.447 253.35 135.971C254.325 138.097 255.117 135.806 255.635 135.171C255.909 134.812 256.884 134.923 256.732 134.232ZM252.68 137.269C251.217 136.855 247.165 139.753 249.816 140.498C251.37 140.939 251.156 140.167 251.887 139.173C252.131 138.842 253.837 137.517 252.68 137.269ZM234.673 115.161C234.399 114.719 233.728 114.498 233.454 114.084C233.271 113.808 233.515 113.229 233.424 113.146C233.21 112.897 232.692 112.87 232.601 112.787C232.753 112.98 231.687 111.876 231.87 111.959C230.834 111.407 227.421 110.082 226.233 110.551C223.369 111.683 225.014 110.275 222.912 109.503C222.607 109.392 221.115 108.923 221.175 109.613C221.206 109.806 222.333 110.413 222.577 110.662C222.699 110.772 223.4 111.462 223.4 111.49C223.491 111.573 223.521 111.821 223.826 111.987C224.1 112.152 224.771 112.097 225.106 112.18C225.654 112.345 226.873 112.759 227.147 113.174C227.36 113.477 226.873 114.002 226.812 113.974C226.903 114.057 227.269 114.333 227.391 114.443C227.208 114.278 229.981 115.244 229.828 115.299C230.834 115.244 230.773 114.278 231.9 114.498C232.418 114.609 232.845 115.437 233.515 115.685C234.856 116.21 235.282 116.182 234.673 115.161ZM216.087 100.919C215.813 100.753 214.168 100.257 215.051 101.029C215.6 101.388 217.093 104.259 217.123 102.299C217.154 101.747 216.605 101.25 216.087 100.919ZM214.686 104.148C215.356 104.866 217.641 106.577 218.403 105.087C219.743 102.492 214.747 102.934 214.686 104.148ZM217.854 108.067C217.763 107.791 214.594 108.592 214.533 108.757C214.015 109.972 213.376 110.855 213.741 112.18C214.564 114.94 214.29 111.931 214.808 111.793C215.265 111.683 215.965 113.312 216.575 112.373C216.879 111.904 215.965 111.159 215.722 110.745C215.6 110.469 216.24 110.275 216.057 110.055C216.026 110.027 215.478 109.696 215.508 109.779C215.447 109.613 214.503 110.082 214.808 109.337C215.082 108.73 218.433 109.944 217.854 108.067ZM214.32 97.5794C213.985 97.5242 213.467 97.607 213.376 97.9382C213.132 98.8214 212.919 101.416 214.381 99.9806C214.259 100.091 214.716 98.4626 214.747 98.573C214.686 98.159 215.295 97.745 214.32 97.5794ZM213.162 93.5773C212.583 93.9637 212.553 95.5369 213.589 95.5645C214.533 95.5645 213.924 92.9701 213.162 93.5773ZM103.507 110.634C101.801 110.22 99.7898 109.972 98.1749 109.337C96.8953 108.813 96.7429 108.288 96.0422 107.184C94.5492 104.921 90.954 103.817 88.3337 102.851C86.6884 102.244 86.2009 102.658 84.5556 102.741C83.2455 102.823 82.2096 102.051 80.808 102.161C79.1932 102.271 78.7666 103.431 77.2737 103.734C76.1464 103.955 74.3792 103.789 73.6175 103.072C72.2769 101.83 74.0136 100.643 73.2519 99.5666C72.612 98.6834 70.9363 99.6494 70.205 98.7662C69.5652 97.9934 71.0277 96.2269 69.9004 95.6749C68.6816 95.0677 67.8285 96.5857 67.2192 96.9445C65.7262 97.8554 64.1723 97.193 63.1973 95.9509C62.588 95.1781 62.1614 94.1845 62.131 93.2185C62.07 92.1145 63.1364 91.7005 64.0505 90.9277C64.8122 90.3205 65.0864 90.1825 65.3301 90.2101C65.6348 90.2377 65.909 90.5413 66.9754 90.4033C67.9504 90.2929 67.6152 89.9617 68.8035 89.8237C69.5957 89.7409 72.0027 89.9341 72.7034 90.4309C73.4347 90.9553 73.587 93.4117 74.6534 92.5561C75.4761 91.8661 74.4706 90.2377 74.2878 89.4373C73.8917 87.6433 74.1964 87.7813 75.9331 86.8705C77.2737 86.1804 77.3346 86.0976 77.6393 84.7728C78.0659 82.8132 77.9135 82.9512 79.376 81.8748C80.2291 81.24 80.1072 80.3844 80.8385 79.722C81.0213 79.584 82.6666 78.9768 82.9713 79.0596C83.9767 79.3356 82.8799 79.446 83.2759 79.9152C83.3978 80.0532 83.0627 80.826 83.6111 80.9364C84.1595 81.0468 84.7994 79.9428 85.1345 79.722C85.9267 79.2528 87.8767 79.5012 87.6024 78.3144C87.3587 77.2656 85.4392 78.5904 84.708 77.928C81.4783 75.0023 97.7179 75.2507 87.3282 70.5311C85.622 69.7583 85.4697 69.5927 84.5556 67.9919C84.4337 67.7987 83.733 66.2807 83.5502 66.2531C82.4533 65.9771 83.4283 66.5015 82.758 66.8603C81.783 67.3847 80.8994 68.4887 79.9854 66.9155C79.4674 66.0047 79.833 65.7563 79.7721 65.4803C79.7416 65.2871 79.5283 65.0938 78.6448 64.6522C77.2128 63.907 76.6034 63.6034 75.1714 63.7966C73.1605 64.0726 73.1605 64.2106 73.587 65.4527C73.8917 66.2807 74.1659 66.3359 74.2573 67.0259C74.3183 67.4123 73.8308 67.5779 73.9831 68.1851C74.0745 68.5439 74.7753 69.0407 75.08 69.4547C75.1714 69.5651 75.2323 69.7031 75.2323 69.8135C75.2018 70.4759 74.4706 70.5311 74.1355 71.0555C73.4652 72.1319 73.9526 71.5247 73.7089 72.8771C73.6175 73.4015 74.105 73.7051 73.3738 73.8155C71.9722 74.0363 71.5761 71.9939 71.18 71.4143C70.7535 70.7795 70.3269 70.4759 69.748 70.2827C69.1996 70.0619 68.5293 69.9515 67.6762 69.7307C67.5238 69.6755 67.1582 69.6479 66.7012 69.5927C65.7567 69.4823 64.477 69.3443 64.2942 69.2339C63.7153 68.8475 64.1114 68.3783 63.7762 67.8539C63.7762 67.8263 63.7458 67.8263 63.7458 67.7987C63.6848 67.7159 63.6239 67.6607 63.5325 67.6331C63.2583 67.5227 62.9536 67.7435 62.8013 67.4123C62.6184 67.0811 62.527 66.7775 62.4966 66.5015C62.3747 65.6459 62.8622 65.011 63.8067 64.5142C63.8981 64.459 65.1778 64.045 65.1778 64.1002C65.2387 64.0174 65.5434 63.355 65.452 63.4102C65.6653 63.217 67.2496 61.5334 67.6457 61.6714C68.2246 61.8922 67.6457 63.5206 69.2301 63.2998C71.0886 63.0514 69.5347 61.8094 69.6566 61.147C69.809 60.2362 70.9058 59.8222 71.0277 58.9666C71.0277 58.9942 70.6621 57.2278 70.723 57.283C70.1746 56.6482 68.2246 56.5378 67.859 56.8966C67.5848 57.1726 68.8035 58.6906 67.341 59.077C66.0614 59.4082 67.0668 58.2766 66.2137 57.6694C65.6957 57.3106 65.4215 57.973 65.3911 57.973C65.1473 57.835 64.8731 57.7246 64.477 57.421C64.02 57.0622 63.6239 55.9306 63.0755 55.075C62.4966 54.1089 61.7958 53.4741 60.7599 54.4953C59.8458 55.4062 60.9122 56.1514 61.7349 56.8414C62.527 57.5314 63.0755 58.1662 61.3997 58.9114C61.2474 58.9666 61.0646 59.0218 60.8208 59.077C59.4193 59.2978 56.799 58.9942 55.7326 58.801C53.5694 58.3594 51.1319 58.8838 48.7249 58.801C48.7858 58.801 47.689 57.7522 47.4148 57.5866C46.5921 57.145 45.0382 57.0622 44.1547 56.869C41.0774 56.179 38.8227 55.8754 35.7759 56.7586C31.0533 58.111 26.3916 56.5102 21.4862 55.9582C18.9879 55.6822 16.7637 56.179 14.509 56.9242C13.9301 57.1174 12.559 57.2002 12.7723 58.0558C12.9247 58.663 14.3871 58.7182 14.7528 59.1046C16.1848 60.6226 13.8692 59.7946 14.1434 61.009C14.2957 61.7266 15.7582 61.5058 15.9106 62.3062C16.1848 63.907 12.1325 63.631 13.077 65.5079C13.4122 66.1703 16.8551 67.7987 17.6472 67.9643C18.9269 68.2403 20.2675 67.8263 21.3948 67.4951C22.9792 67.0259 24.9292 66.0047 26.6354 66.0599C28.0369 66.0875 29.9564 67.0535 31.3275 67.4399C34.4048 68.3507 34.9837 71.0555 37.4212 72.8219C39.0055 73.9535 41.9 74.3951 43.2101 75.7752C44.0328 76.6584 43.6062 77.652 43.4844 78.9216C43.3625 80.1636 42.9055 81.6264 43.4844 82.7304C44.0328 83.7792 45.1296 84.828 46.1656 85.8216C46.6531 86.2908 47.0796 86.7325 47.4757 87.1465C48.3593 88.1401 52.8991 93.6601 53.5389 93.3565C54.3006 92.9701 52.0459 90.9829 53.874 91.9213C54.8795 92.4457 56.0678 94.8193 56.7381 95.7025C57.8045 97.1101 58.9013 97.745 60.2419 98.2142C61.2169 98.5454 62.3138 98.7938 63.6239 99.1802C64.8122 99.539 65.3911 99.7322 66.3965 100.367C66.9145 100.698 67.3715 101.14 67.9504 101.305C68.6207 101.499 69.5347 101.057 70.1746 101.305C71.0886 101.664 71.6066 103.072 72.5206 103.679C73.8003 104.535 75.0495 104.535 76.4206 104.866C81.326 106.08 75.5065 109.171 75.3237 110.827C75.019 113.45 77.8831 116.265 79.5283 118.252C80.3815 119.301 81.326 119.577 82.3619 120.432C83.5806 121.426 83.3978 122.006 83.2759 123.33C82.7885 128.298 81.6307 133.653 81.8744 138.649C81.9963 140.967 83.0017 143.755 83.8244 145.99C84.2205 147.039 85.1954 148.502 86.7189 148.005C88.6079 147.37 86.7189 145.19 86.7493 143.948C86.7798 142.126 87.9985 138.29 89.3391 136.965C90.3446 135.971 92.0508 135.613 93.0867 134.674C94.1227 133.736 94.0617 132.852 95.3719 132.19C96.164 131.804 96.5906 131.942 97.139 131.196C97.4742 130.755 97.596 130.12 97.8093 129.623C98.2968 128.492 98.632 126.698 99.4546 125.732C101.283 123.634 104.695 124.959 105.183 121.757C105.365 120.515 105.03 118.638 105.701 117.534C106.31 116.541 108.047 116.32 108.565 115.244C110.149 111.987 106.036 111.241 103.507 110.634ZM82.1791 58.7734C81.0213 58.111 81.0822 57.2278 80.1377 56.4274C79.8635 56.179 79.4979 55.9858 79.1018 55.7926C78.3401 55.4338 77.487 55.1302 76.8471 54.7438C75.7198 54.0813 74.8362 52.9221 73.7394 52.2597C73.4042 52.0665 73.0386 51.9009 72.673 51.8181C71.4847 51.5421 66.3965 51.3213 66.0004 52.6461C65.9395 52.7565 65.909 52.8945 65.8785 53.0049C65.4215 54.9646 69.6871 55.3234 71.0582 55.7098C72.7644 56.2066 74.4706 56.9242 75.1714 58.4698C75.537 59.2702 75.1714 60.3466 75.5675 61.147C76.0854 62.1958 76.9385 62.4442 78.0354 62.9962C78.7057 63.3274 79.5588 63.9622 80.351 64.2658C80.5033 64.321 80.6861 64.3762 80.808 64.4038C82.7275 64.735 82.4228 63.8518 83.1541 62.7478C83.5197 62.1958 84.6775 61.423 84.708 60.7054C84.7994 59.1046 83.2455 59.3806 82.1791 58.7734ZM62.8013 51.8181C61.6739 51.6249 60.3943 52.7289 61.7653 53.4189C63.2887 54.1917 64.2333 51.8181 62.8013 51.8181ZM57.6216 52.2873C55.4584 53.4741 58.9318 55.2958 59.4497 54.6609C61.095 53.3361 59.663 51.1833 57.6216 52.2873ZM57.256 55.8478C57.0123 55.213 55.9459 54.9922 55.5193 54.5229C54.849 53.7777 54.7881 52.4805 53.6912 52.0665C52.1983 51.4869 50.3397 52.9221 48.8163 52.6185C47.232 52.2873 39.2188 49.7205 40.4375 53.4465C41.0164 55.1854 43.5453 54.2469 44.8554 54.6885C46.3788 55.213 47.2929 56.8966 48.7554 57.3382C50.3397 57.8074 51.8022 56.6758 53.4475 56.8414C54.6053 56.9794 58.3529 58.5526 57.256 55.8478ZM51.9545 49.1961C51.3147 48.6717 47.9327 48.1197 46.8968 47.7333C45.7695 47.2917 45.6171 47.1813 44.5507 47.4021C44.1547 47.4849 41.443 48.5061 43.0578 49.1133C44.6117 49.6929 46.5617 50.8797 48.2069 51.0453C49.4561 51.1557 53.5998 50.5485 51.9545 49.1961ZM51.2538 46.2429C51.071 44.5317 47.171 46.0221 48.1765 47.0433C48.9077 47.6229 51.3756 47.3469 51.2538 46.2429ZM61.3083 49.8033C61.0341 49.1409 59.3583 48.6441 58.749 48.3129C58.1396 47.9541 58.0177 47.5401 57.1342 47.5401C56.5248 47.5401 55.0623 47.8437 56.0373 48.6993C56.799 49.3893 57.4693 50.1621 58.4138 50.5209C59.3279 50.8797 61.9177 51.2937 61.3083 49.8033ZM81.9963 40.1156C80.2596 39.674 78.4315 39.3428 76.6643 39.0392C74.6534 38.6804 73.0995 39.122 71.0886 39.4808C69.1082 39.8396 67.0973 40.1708 65.1168 40.5296C64.1419 40.6952 62.9536 40.5572 63.3802 41.4404C64.3551 43.4552 70.0527 41.7716 70.4488 42.572C70.9668 43.5656 66.9145 43.6208 66.6403 43.5932C64.8731 43.3724 63.4106 42.2408 61.8263 41.8268C61.0036 41.606 57.9568 42.02 58.1396 43.0688C58.3529 44.2833 61.1864 45.4425 62.3138 45.8289C63.0145 46.0497 63.6544 46.3809 64.3247 46.2981C64.8426 46.2429 66.3356 44.9733 66.7012 45.6081C67.2192 46.4913 64.02 48.1473 63.502 48.2025C63.1669 48.2301 58.6576 46.4637 60.0286 48.2577C60.5466 48.9477 61.8263 48.4785 62.4356 48.9753C62.9231 49.3617 63.1059 51.1557 63.7153 51.1557H67.1582C67.9809 51.1557 71.1496 51.6249 71.7894 51.1557C74.0745 49.5825 69.6261 49.1685 68.4988 49.3893C67.7371 49.5549 65.8176 50.6865 65.3911 49.5273C64.9645 48.3405 67.0668 48.5889 67.7676 48.6165C68.834 48.6717 71.2105 49.4445 72.1245 49.0857C72.9167 48.7821 72.6425 47.9541 73.13 47.2089C73.4956 46.6569 74.4401 46.3809 74.7144 45.8013C74.8058 45.6081 74.5011 45.1665 74.4097 45.1941C74.8362 44.6973 75.8112 44.3109 76.7557 43.8968C78.0354 43.3172 82.1791 42.02 83.0627 41.1092C83.8244 40.226 83.0627 40.3916 81.9963 40.1156ZM57.2256 45.6909C56.5553 44.5593 52.7467 45.0285 53.935 46.1877C54.6662 46.5741 58.231 47.3745 57.2256 45.6909ZM58.7185 45.8565C59.1755 46.5189 60.0591 46.5465 60.2724 45.7737C60.5466 44.8077 58.0482 44.5041 58.7185 45.8565ZM116.456 42.1028C116.425 39.3704 99.2718 38.7908 96.6211 39.2324C92.6602 39.8672 87.572 39.812 84.4033 42.0476C82.6056 43.3172 81.3869 44.1177 79.1932 44.7525C78.1268 45.0837 76.7862 45.1941 76.9995 46.4361C77.1213 47.1261 78.8276 49.0581 79.6502 49.0857C81.2346 49.1409 83.3673 48.8649 84.8603 49.4169C86.597 50.0793 88.486 52.1493 89.8266 53.3361C92.5383 55.7098 92.325 60.0154 93.3 63.1342C93.6352 64.2106 94.3664 65.8943 95.7375 66.2531C97.9617 66.8327 97.7789 63.217 98.8148 62.1682C99.6374 61.3126 100.155 61.7818 101.283 61.561C102.441 61.3126 102.745 60.9538 103.507 60.1534C104.848 58.6906 106.188 58.387 108.199 57.7246C110.85 56.8414 113.561 53.0049 113.074 50.3277C112.769 48.6165 110.545 46.6845 111.825 45.1665C112.739 44.1729 116.456 43.6484 116.456 42.1028ZM118.802 59.7946C117.37 59.5462 115.786 59.215 114.445 59.2702C113.409 59.2978 112.434 59.6842 111.49 60.0706C111.033 60.2638 110.941 60.8158 111.368 61.0918C112.739 62.0302 113.744 62.6926 115.633 62.6926C118.162 62.6926 118.314 62.2786 119.289 60.6778C119.472 60.319 119.259 59.8498 118.802 59.7946ZM250.791 56.9794C248.536 56.2342 246.708 55.1302 244.606 56.0962C242.534 57.0346 240.614 57.145 238.116 56.731C235.77 56.3446 235.069 54.3297 233.058 53.3637C231.108 52.4253 227.939 53.0049 225.868 53.0049C224.862 53.0049 223.979 52.8945 223.125 53.3085C221.937 53.8881 221.724 55.1026 220.231 55.2682C219.408 55.351 217.458 54.8542 216.666 54.5781C214.929 53.9157 215.6 53.0049 214.411 52.0389C213.894 51.6249 211.883 51.2109 211.273 51.2661C209.78 51.4041 209.872 52.7565 208.318 52.7565C207.708 52.7565 205.576 52.1217 205.058 51.7905C203.108 50.4657 205.301 50.3553 205.423 49.1409C205.637 47.0985 201.798 47.4573 200.396 47.3469C198.233 47.1813 195.46 46.5189 193.327 46.7949C191.195 47.0709 189.031 48.6717 187.173 49.5549C186.563 49.8585 185.375 50.1897 184.888 50.6589C184.065 51.4593 184.156 52.1493 183.029 52.8117C182.389 53.1981 181.018 53.9985 180.226 54.0261C178.977 54.0813 178.367 53.1981 177.118 53.2809C176.296 53.3361 174.62 54.1089 173.95 54.5229C173.614 54.7161 173.249 54.7161 172.975 55.0198C172.487 55.5442 172.883 56.5378 172.091 56.8966C171.207 57.283 169.684 56.3446 168.77 56.2894C167.155 56.2066 167.308 57.0898 166.028 57.5866C164.352 58.2214 162.158 57.6418 160.452 58.3594C158.258 59.2978 156.461 61.5886 154.145 62.2234C153.444 62.4166 152.469 62.5822 151.951 61.7266C151.007 60.1258 153.749 60.6226 154.45 59.9602C155.669 58.801 153.17 58.0006 151.677 57.4486C151.464 57.3658 151.281 57.283 151.098 57.2278C149.453 56.5102 146.498 54.5229 144.7 54.4401C142.75 54.3573 140.13 56.7034 138.606 57.559C137.662 58.0834 136.87 58.525 136.138 59.077C135.62 59.4358 135.163 59.8774 134.706 60.4018C133.671 61.561 130.502 63.907 130.349 65.4527C130.289 66.0323 131.294 67.5503 131.873 67.8539C133.183 68.5715 133.61 67.3571 134.889 67.5227C136.474 67.7435 136.748 71.7455 139.216 69.4271C139.642 69.0131 140.282 67.3019 140.343 66.7499C140.465 65.7563 139.642 64.8454 140.008 63.907C140.16 63.5206 141.288 62.3338 142.445 61.6162C143.39 61.009 144.304 60.733 144.7 61.3954C144.73 61.423 144.73 61.4782 144.761 61.5058C145.188 62.9134 139.977 64.735 143.695 66.0875C144.426 66.3635 146.376 65.4251 146.924 66.2807C147.686 67.4399 145.218 67.2191 144.761 67.6607C144.121 68.2955 144.639 69.0683 143.664 69.7031C142.659 70.3655 140.952 70.9175 139.764 71.2487C137.997 71.7455 136.047 71.0555 134.28 71.3867C132.513 71.7179 130.806 73.1531 129.466 74.1467C128.582 74.7815 127.333 75.4715 127.089 76.548C126.815 77.8728 128.552 78.9216 127.577 80.1636C126.876 81.0468 125.749 80.3568 124.743 80.7708C123.585 81.24 122.763 83.2272 123.646 84.3588C124.743 85.794 128.247 85.794 129.435 84.6624C130.319 83.8068 129.618 82.2888 130.715 81.3228C131.385 80.7156 133.061 79.9704 133.945 79.8324C135.834 79.5288 135.864 80.6052 136.87 81.6264C137.235 82.0128 139.033 83.6136 139.551 83.6688C142.384 83.9448 138.332 80.2464 138.21 79.4736C138.149 79.17 138.332 78.2592 138.667 78.0936C139.49 77.7072 139.307 78.204 139.764 78.6732C140.313 79.2252 140.8 80.3568 141.409 81.0192C142.263 81.9852 143.816 85.0488 144.944 85.1316C146.071 85.2144 145.736 83.724 146.68 83.862C147.473 83.9724 147.899 85.656 149.087 85.9044C150.123 86.0976 151.251 85.3524 152.317 85.5456C153.841 85.8492 154.663 87.3949 153.871 88.6369C152.926 90.0997 149.849 89.4373 148.082 89.1337C147.077 88.9681 145.584 88.4713 144.578 88.5541C142.994 88.6921 142.811 89.9341 141.044 89.6029C139.977 89.4097 138.18 88.7473 137.266 88.1677C135.956 87.3673 136.839 87.6985 136.413 86.5117C136.017 85.4352 136.291 85.6836 134.95 85.6008C133.61 85.518 132.147 85.7664 130.806 85.8492C127.821 86.0424 125.018 86.346 123.098 88.5541C121.94 89.8789 120.874 91.2865 119.807 92.6941C119.32 93.3565 118.467 94.1569 118.284 94.9849C117.979 96.3649 119.107 97.8554 118.954 99.3458C118.711 101.995 120.569 102.961 122.671 104.728C124.621 106.356 125.871 106.77 128.43 106.743C129.374 106.743 130.167 106.715 131.05 106.439C131.964 106.163 132.817 105.307 133.853 105.473C134.493 105.583 135.316 106.494 135.986 106.743C137.418 107.267 137.205 106.439 137.692 107.902C137.997 108.868 137.692 109.889 138.088 110.855C138.424 111.683 139.155 112.539 139.612 113.284C141.074 115.602 140.77 116.237 140.313 118.694C139.916 120.764 141.288 121.702 141.775 123.662C142.019 124.655 141.745 125.621 142.263 126.587C142.689 127.415 143.603 128.216 144.213 128.988C145.766 130.893 146.254 131.914 148.874 131.997C151.769 132.08 152.469 131.776 153.962 129.678C154.572 128.823 154.876 128.326 155.09 127.332C155.394 126.008 155.394 126.118 156.369 125.235C157.497 124.186 156.948 124.02 157.222 122.723C157.436 121.674 158.015 121.26 158.807 120.488C160.391 118.942 160.665 117.728 160.178 115.492C159.995 114.692 159.355 114.112 159.142 113.367C158.776 112.042 159.416 111.711 160.239 110.855C161.701 109.337 163.986 107.985 164.84 106.08C165.266 105.142 165.51 103.486 164.596 102.685C163.468 101.719 161.519 102.299 160.117 101.361C158.411 100.229 157.314 99.5666 156.461 97.8002C156.217 97.2758 153.323 92.0041 153.688 91.7833C153.993 91.6177 157.68 95.5093 158.076 96.0061C159.416 97.6898 160.117 100.947 162.92 100.947C164.504 100.947 167.825 99.7874 168.953 98.9594C170.598 97.7726 171.451 94.7365 168.983 93.5497C167.49 92.8321 167.673 94.0189 166.363 94.2121C164.961 94.4053 164.504 93.1909 163.865 92.1145C163.499 91.4797 162.463 90.2653 163.865 90.0721C164.718 89.9617 165.632 91.8661 166.576 92.1145C167.643 92.3905 168.526 91.8937 169.593 92.3353C171.086 92.9149 171.055 93.2737 172.853 93.2737C175.747 93.2737 176.753 93.9637 178.733 96.1441C180.074 97.607 180.896 99.4562 181.871 101.14C183.121 103.265 183.943 104.838 185.406 102.161C186.533 100.119 187.325 99.263 189.245 97.8278C190.098 97.1929 191.103 96.0613 192.139 95.6749C193.48 95.1505 193.632 95.5093 194.333 96.7237C195.095 98.0762 194.881 98.1314 196.222 98.7662C196.679 98.987 197.105 98.6282 197.623 99.0146C198.02 99.3182 198.233 100.505 198.324 100.891C198.781 102.768 198.69 104.314 200.03 105.997C200.518 106.605 201.31 107.819 202.163 106.963C202.803 106.301 201.402 104.7 200.975 104.148C200.609 103.679 198.995 102.437 200.366 102.051C201.615 101.692 201.889 103.9 202.986 104.065C204.844 104.314 206.977 100.698 205.911 99.263C205.332 98.4626 203.687 98.5178 203.595 97.3586C203.473 95.6473 205.728 96.8065 206.581 96.7789C208.257 96.7513 211.487 94.4881 212.401 93.3565C213.345 92.1973 213.833 89.3269 213.467 87.8365C213.193 86.6773 212.157 86.1252 212.461 84.8832C212.797 83.5584 214.198 83.31 215.478 83.9448C216.544 84.4416 216.727 85.9872 217.763 86.2356C220.322 86.8429 218.007 84.2208 217.915 83.6688C217.793 82.896 218.281 81.7092 219.073 81.24C220.018 80.688 221.389 81.3504 222.333 80.9088C223.735 80.2464 225.136 77.0172 225.502 75.6371C225.685 74.9747 225.715 73.7327 225.441 73.0979C224.954 71.9387 223.156 71.8559 223.43 70.5863C223.704 69.2891 226.507 67.5503 227.848 67.3295C230.164 66.9431 232.053 67.7435 234.064 66.5843C234.795 66.1427 239.213 62.7754 239.822 65.3975C240.218 67.1915 235.831 68.4335 235.526 70.3103C235.282 71.8835 236.318 74.9471 238.238 73.7603C239.944 72.7115 241.345 70.5035 241.681 68.7371C242.077 66.5567 243.874 66.7775 246.068 66.0047C247.195 65.6183 248.292 64.9558 249.45 64.6798C250.12 64.5142 251.004 64.7074 251.613 64.4866C252.649 64.1002 255.757 61.285 256.153 60.319C257.098 58.1938 252.436 57.5314 250.791 56.9794ZM158.258 82.5096C157.07 83.1168 153.993 81.8472 152.622 81.7368C150.459 81.5712 148.173 81.792 149.453 79.2252C149.971 78.1764 150.245 77.9556 151.525 77.7348C152.5 77.5692 154.876 77.4864 155.212 78.618C155.608 79.7772 160.97 81.1296 158.258 82.5096ZM164.809 85.5732C162.829 85.5732 163.164 83.0616 162.524 81.8196C161.793 80.4396 160.513 78.4524 163.255 78.2868C164.291 78.204 165.022 78.8664 165.449 79.722C165.571 79.9428 165.662 80.1636 165.723 80.412C165.875 80.8812 165.967 81.378 165.997 81.8196C166.119 83.0616 166.911 85.5732 164.809 85.5732ZM164.535 118.445C163.286 119.77 162.707 120.543 162.524 122.337C162.402 123.744 162.829 126.587 165.236 125.373C166.515 124.738 166.729 122.061 167.003 120.874C167.277 119.66 166.515 116.348 164.535 118.445ZM202.072 109.309C201.95 109.254 197.715 106.908 199.025 108.84C199.726 109.861 204.387 115.409 204.814 111.793C204.966 110.496 203.26 109.999 202.072 109.309ZM205.88 112.897C205.393 114.581 209.323 115.796 210.42 114.802C212.705 112.759 206.673 111.048 205.88 112.897ZM212.675 106.908C212.492 106.08 213.101 104.921 212.126 104.397C210.725 103.651 210.512 105.114 210.085 105.942C209.658 106.798 209.415 107.267 208.47 107.791C207.891 108.123 205.789 108.288 206.764 109.42C207.708 110.496 209.689 112.677 211.517 112.014C212.218 111.766 212.827 110.082 213.04 109.53C213.528 108.178 212.949 108.233 212.675 106.908ZM238.39 126.035C237.933 123.662 235.038 122.778 233.302 121.04C232.51 120.239 231.931 118.473 230.956 117.948C228.335 116.541 229.767 119.577 228.427 120.267C226.233 121.398 226.111 117.81 225.685 117.176C224.557 115.547 222.394 116.955 221.45 117.81C220.14 118.97 219.195 118.556 217.885 119.328C216.879 119.908 216.514 121.454 215.265 121.923C214.259 122.282 212.492 122.585 211.73 123.248C210.725 124.131 211.426 125.345 211.761 126.56C212.096 127.857 212.248 129.623 212.919 130.81C213.68 132.162 214.533 131.886 216.087 131.886C217.458 131.886 218.22 131.859 219.408 131.417C221.054 130.782 221.937 129.651 223.765 130.368C224.405 130.617 224.923 131.307 225.593 131.472C226.203 131.638 226.568 131.362 227.056 131.417C229.432 131.61 228.396 132.825 229.95 134.205C231.687 135.751 235.404 134.647 236.653 133.184C238.481 131.086 238.938 128.74 238.39 126.035Z" fill="#1EBFBF"/>
<path d="M126.511 150.597C115.307 148.429 116.753 150.597 103.019 150.597C94.2583 151.262 86.0323 152.766 76.2741 150.597C69.2709 149.041 57.8417 153.127 40.1322 150.597C22.4226 148.067 27.8439 150.959 9.77296 147.706C-8.29799 144.454 -10.4666 159.633 2.54453 161.44C15.5556 163.247 85.3095 163.97 168.797 164.331C252.285 164.692 257.345 155.657 250.839 152.766C244.334 149.874 220.48 154.573 207.831 150.597C195.181 146.622 177.11 156.018 161.208 150.597C145.305 145.176 137.715 152.766 126.511 150.597Z" fill="#1EBFBF"/>
</g>
<path d="M126.78 98.7952C126.78 129.111 102.204 153.686 71.8886 153.686C41.5731 153.686 16.9976 129.111 16.9976 98.7952C16.9976 68.4797 41.5731 43.9042 71.8886 43.9042C86.5062 43.9042 99.7878 49.617 109.625 58.9332C120.191 68.9387 126.78 83.0969 126.78 98.7952Z" stroke="#F9F9F9" stroke-width="1.5"/>
<path d="M46.5143 73.8189C47.4245 90.6986 61.4973 120.629 97.1832 117.774C106.107 117.774 120.608 109.058 124.837 92.4431" stroke="#16191C" stroke-width="3.42039" stroke-linecap="round" stroke-linejoin="round" stroke-dasharray="0.22 8.68"/>
<path d="M46.4894 72.9292C29.8595 70.8915 17.369 81.7988 15.4339 95.8728" stroke="#16191C" stroke-width="3.42039" stroke-linecap="round" stroke-linejoin="round" stroke-dasharray="0.22 8.68"/>
<path d="M138.277 75.6369L125.412 92.2281C125.293 92.3811 125.062 92.3811 124.943 92.2281L112.079 75.6369C106.963 69.0388 107.553 59.6635 113.457 53.7589C119.931 47.2855 130.426 47.2855 136.899 53.7589C142.804 59.6635 143.395 69.0373 138.277 75.6369Z" fill="#16191C"/>
<circle cx="127.219" cy="65.6956" r="7.95796" fill="#F9F9F9"/>
<path d="M101.343 101.65L88.4775 118.241C88.3587 118.394 88.127 118.394 88.0082 118.241L75.1446 101.65C70.0285 95.0519 70.6181 85.6767 76.5227 79.7721C82.9961 73.2986 93.4911 73.2986 99.9645 79.7721C105.869 85.6767 106.46 95.0505 101.343 101.65Z" fill="#16191C"/>
<circle cx="89.7812" cy="92.064" r="7.95796" fill="#F9F9F9"/>
<path d="M68.8825 45.6965L46.8913 74.0569C46.6882 74.3183 46.2922 74.3183 46.0891 74.0569L24.1005 45.6965C15.3553 34.4179 16.3631 18.3922 26.4562 8.29905C37.5216 -2.76635 55.4613 -2.76635 66.5267 8.29905C76.6199 18.3922 77.6302 34.4153 68.8825 45.6965Z" fill="#16191C"/>
<circle cx="47.4722" cy="27.4869" r="13.603" fill="#F9F9F9"/>
</svg>
