<svg width="182" height="169" viewBox="0 0 182 169" fill="none" xmlns="http://www.w3.org/2000/svg">
<path d="M82.4484 64.695C80.8236 71.2005 78.2919 86.7523 81.1618 96.9329C89.7878 127.507 97.2166 140.336 121.625 159.275C132.395 157.493 157.459 145.281 160.191 125.257C143.178 114.147 129.86 102.299 129.86 102.299C129.317 82.1841 129.404 77.4315 128.221 67.9012C126.741 55.9893 128.228 13.818 126.259 10.3435C124.396 7.05896 121.555 8.50646 120.903 9.75631C121.219 7.11002 121.192 0.840191 118.232 0.166086C115.271 -0.508019 113.279 2.87593 112.35 4.08289C111.179 2.65222 107.612 2.41829 104.267 7.29757C100.919 12.1772 98.0255 19.1152 96.9986 21.9748C95.4152 21.6696 91.6578 22.787 89.2864 29.6979C86.9149 36.6087 83.7395 55.9083 82.4484 64.695Z" fill="#1EBFBF"/>
<path d="M120.526 10.2755C119.998 11.4516 118.257 14.0396 116.6 25.7976C114.944 37.5556 114.223 42.6312 112.625 64.1184M112.116 4.79602C106.265 15.3229 102.234 46.0887 100.092 64.3333M96.6698 22.2465C94.4438 31.3211 93.1092 38.6739 91.5955 48.9583C90.4978 56.4167 89.7514 61.7636 88.4356 67.6147" stroke="#16191C" stroke-width="1.5" stroke-linecap="round" stroke-linejoin="round"/>
<path d="M103.372 91.3958C103.372 91.3958 106.414 85.6174 113.985 82.1476C121.557 78.6778 123.416 75.9276 123.416 75.9276L131.419 61.2796C132.503 59.295 134.008 57.5711 135.824 56.2228C138.17 54.4814 141.1 52.5816 145.644 51.7288C150.75 50.7722 152.386 53.0772 152.349 55.2126C152.326 56.6595 151.732 58.0374 150.758 59.1045L145.891 64.4223C144.848 65.5639 144.003 66.8727 143.395 68.2942C141.549 72.6084 137.491 82.2379 136.25 86.3709C134.625 91.7815 125.119 115.261 121.186 116.43C117.254 117.599 113.375 116.636 110.968 113.174" fill="#1EBFBF"/>
<path d="M111.862 118.079C113.424 118.986 118.354 116.76 121.613 114.281C124.872 111.801 128.569 105.301 130.01 102.361" stroke="#16191C" stroke-width="1.5" stroke-linecap="round" stroke-linejoin="round"/>
<path d="M109.337 84.9003C112.509 82.9188 118.601 80.3276 120.579 78.4254C122.556 76.5232 123.574 75.3859 124.318 74.0529C124.913 72.9865 126.94 69.5049 127.879 67.8975" stroke="#16191C" stroke-width="1.5" stroke-linecap="round" stroke-linejoin="round"/>
<path d="M144.778 63.9508C143.881 63.1745 142.166 61.3863 143.753 58.9231C144.458 57.8287 147.322 55.2899 150.329 54.8807" stroke="#16191C" stroke-width="1.5" stroke-linecap="round" stroke-linejoin="round"/>
<path d="M94.4225 102.321C90.5278 111.923 81.8665 129.963 81.8665 129.963C81.8665 129.963 71.9502 153.245 65.9257 168.143C34.8992 160.237 23.0114 145.696 22.7936 141.4L44.3959 115.313C47.0967 95.7886 49.5595 78.1235 51.7402 68.9744C54.4655 57.5359 57.5722 16.3196 59.8651 13.1483C62.0326 10.1523 64.6438 11.8689 65.1423 13.1544C65.1214 10.5453 65.825 4.44298 68.7802 4.10588C71.7354 3.76878 73.3092 7.27559 74.0833 8.55272C75.3793 7.28753 78.8755 7.44468 81.6069 12.5561C84.3383 17.6676 86.404 24.7357 87.0966 27.631C88.6707 27.5045 92.2093 28.9982 93.772 35.9824C97.7779 53.8993 101.519 84.8272 94.4225 102.321Z" fill="#F9F9F9"/>
<path d="M42.5807 95.9604C42.8138 104.765 44.0341 111.432 44.0806 116.595L57.784 89.0665C57.784 89.0665 57.1519 83.9121 54.731 77.118C53.0395 72.367 50.4722 66.8118 46.6343 61.6588C40.0139 52.7709 33.3636 51.3962 31.1183 52.8283C26.7464 55.6183 34.9926 64.9689 36.48 68.8992C39.5117 76.9176 40.6682 80.9792 42.5807 95.9604Z" fill="#F9F9F9"/>
<path d="M87.0967 27.6308C86.4041 24.7356 84.3384 17.6674 81.607 12.556C78.8756 7.44452 75.3793 7.28737 74.0834 8.55256M34.0219 64.5148C31.3271 60.188 27.9876 54.8261 31.1182 52.8282C33.3635 51.3962 40.0138 52.7709 46.6342 61.6588C48.593 64.2888 50.2208 67.0236 51.5701 69.7028C51.627 69.4543 51.6838 69.2114 51.7403 68.9742C52.9958 63.7046 54.3323 52.1151 55.6328 40.8371C57.1553 27.6344 58.6286 14.8585 59.8652 13.1482C62.0326 10.1522 64.6439 11.8687 65.1424 13.1542C65.1215 10.5451 65.8251 4.44282 68.7803 4.10572C69.8313 3.98583 70.7076 4.35215 71.4353 4.93146M36.4799 68.8992C39.5116 76.9175 40.6681 80.9791 42.5806 95.9604C42.7065 100.715 43.1203 104.847 43.4816 108.455C43.752 111.154 43.9931 113.561 44.0621 115.716L25.0122 138.721" stroke="#16191C" stroke-width="1.5" stroke-linecap="round" stroke-linejoin="round"/>
<path fill-rule="evenodd" clip-rule="evenodd" d="M43.3981 159.911C28.9359 152.596 22.9479 144.437 22.7939 141.4L23.0969 141.034C41.6176 146.357 54.417 138.033 64.8752 131.231C72.181 126.479 78.3441 122.471 84.517 124.377C82.9475 127.712 81.8668 129.962 81.8668 129.962C81.8668 129.962 71.9505 153.245 65.9261 168.143C57.0902 165.891 49.5989 162.997 43.3981 159.911Z" fill="#16191C"/>
<path d="M58.8763 19.4894C59.1558 20.6237 62.5748 20.6812 63.1524 19.8744C63.8743 18.8658 63.564 14.9523 63.564 14.9523" stroke="#16191C" stroke-width="1.5" stroke-linecap="round"/>
<path d="M85.612 35.6772C86.0545 36.7065 89.8678 36.2525 90.1455 35.3531C90.3538 34.6785 90.2016 31.1833 89.8486 30.7317" stroke="#16191C" stroke-width="1.5" stroke-linecap="round"/>
<path d="M63.1978 66.4763C64.8261 53.465 65.6122 31.085 65.1275 12.9678M73.7927 67.3766C77.3838 39.2938 71.7137 19.7572 72.8739 11.9949M85.0044 66.9963C88.2939 49.2243 78.7179 29.9351 87.0569 27.699M49.1527 77.2495C49.1527 77.2495 51.0623 72.5624 51.6409 69.3219" stroke="#16191C" stroke-width="1.5" stroke-linecap="round" stroke-linejoin="round"/>
<path d="M1 59.6536C5.49221 67.9026 21.8829 86.0035 51.5081 92.4142M6.27347 81.6904C12.065 85.9311 24.3557 95.2017 36.9768 98.7298" stroke="#16191C" stroke-width="1.5" stroke-linecap="round"/>
<path d="M151.561 22.7104L139.43 38.2523M143.187 43.441L181 14.5496" stroke="#16191C" stroke-width="1.5" stroke-linecap="round"/>
</svg>
