<svg class="_Dv0M7" width="24" height="24" viewBox="0 0 24 24" fill="none" xmlns="http://www.w3.org/2000/svg"><path d="M11.992 19.995c-1.05 0-1.58-.866-1.963-1.496-.152-.252-.372-.614-.488-.672-.136-.042-.619.073-.829.126-.687.178-1.637.43-2.356-.284-.74-.724-.414-1.716-.178-2.44.084-.274.215-.704.189-.84-.063-.084-.467-.284-.704-.405-.619-.31-1.663-.83-1.663-1.926v-.126c0-1.055.934-1.543 1.611-1.9l.053-.027c.24-.12.64-.325.718-.44.021-.116-.141-.615-.204-.799l-.026-.078c-.22-.699-.52-1.654.204-2.368.688-.687 1.637-.456 2.33-.288.231.057.719.173.86.13.116-.057.358-.461.473-.655.367-.604.918-1.507 1.973-1.507 1.055 0 1.553.824 1.942 1.428.162.252.41.64.535.703.105.032.472-.047.687-.089l.22-.047c.662-.147 1.575-.341 2.263.341.76.74.377 1.78.126 2.467-.064.173-.226.599-.226.777.142.137.588.357.74.43.682.331 1.721.83 1.721 1.932v.126c0 1.055-.955 1.543-1.653 1.9l-.053.027c-.199.094-.682.32-.77.446 0 .094.157.53.24.766.252.683.63 1.717-.125 2.467-.709.704-1.653.483-2.346.32-.22-.052-.693-.172-.84-.115-.12.058-.399.504-.493.646-.336.551-.908 1.475-1.973 1.475l.005-.005Zm-2.534-3.486c.21 0 .409.032.598.11.493.21.787.693 1.076 1.166.34.556.572.903.865.903.31 0 .562-.373.856-.856.315-.504.635-.971 1.112-1.17.51-.2 1.066-.09 1.637.052.562.131.94.205 1.118.026.147-.147.006-.577-.178-1.081-.21-.567-.446-1.208-.21-1.754.215-.509.756-.792 1.39-1.091l.032-.016c.388-.2.866-.441.934-.677a.789.789 0 0 1-.01-.121v-.142c-.08-.252-.567-.483-.96-.677-.625-.304-1.16-.593-1.376-1.076-.246-.572 0-1.239.205-1.769.142-.388.341-.924.184-1.076-.173-.173-.515-.11-1.06.005l-.231.047c-.493.105-1.002.21-1.464.016-.494-.21-.819-.714-1.102-1.16-.336-.52-.583-.866-.866-.866-.283 0-.546.378-.845.871-.273.457-.582.977-1.091 1.192-.515.215-1.144.063-1.648-.058-.567-.136-.966-.22-1.123-.063-.142.142-.042.525.126 1.045l.02.068c.21.635.368 1.213.158 1.727-.226.53-.787.814-1.328 1.087-.409.215-.834.44-.928.666v.294c.073.242.509.473.923.677.546.279 1.107.562 1.328 1.087.22.52.037 1.123-.147 1.706-.152.478-.32.976-.157 1.134.178.178.556.094 1.112-.053.33-.078.708-.173 1.07-.173h-.02Zm-4.183-4.257v.01-.01Zm-1.223-.478v.01-.01Zm6.817-.498c.058-.032.11-.08.168-.126a1.313 1.313 0 0 0 .1-1.859 1.363 1.363 0 0 0-.898-.451 1.297 1.297 0 0 0-.939.315 1.357 1.357 0 0 0-.446.903 1.315 1.315 0 0 0 2.015 1.202v.016Zm2.257 1.443a1.324 1.324 0 0 0-.394 1.816c.394.62 1.197.788 1.816.394a1.314 1.314 0 0 0 .393-1.816 1.335 1.335 0 0 0-1.815-.394Zm-2.671 2.777 3.998-6.31a.658.658 0 1 0-1.112-.703l-3.999 6.31a.658.658 0 1 0 1.113.703Z" fill="currentColor"></path></svg>